<svg width="90" height="90" viewBox="0 0 90 90" fill="none" xmlns="http://www.w3.org/2000/svg">
<g clip-path="url(#clip0_3_97)">
<path d="M89.884 44.9418C89.884 20.1152 69.7689 0 44.9419 0C20.1152 0 0 20.1152 0 44.9418C0 67.3732 16.4346 85.9661 37.9197 89.3403V57.9334H26.5031V44.9418H37.9197V35.0403C37.9197 23.7776 44.6248 17.5564 54.8944 17.5564C59.8129 17.5564 64.9556 18.4335 64.9556 18.4335V29.4878H59.2871C53.7056 29.4878 51.9643 32.9527 51.9643 36.5063V44.9418H64.4282L62.4349 57.9334H51.9643V89.3403C73.4493 85.9661 89.884 67.3732 89.884 44.9418Z" fill="#3F75FF"/>
</g>
<defs>
<clipPath id="clip0_3_97">
<rect width="90" height="89.3814" fill="white"/>
</clipPath>
</defs>
</svg>
