<svg width="90" height="90" viewBox="0 0 90 90" fill="none" xmlns="http://www.w3.org/2000/svg">
<g clip-path="url(#clip0_3_101)">
<path d="M45.0099 21.9251C32.2404 21.9251 21.9403 32.2275 21.9403 45C21.9403 57.7725 32.2404 68.0748 45.0099 68.0748C57.7797 68.0748 68.0799 57.7725 68.0799 45C68.0799 32.2275 57.7797 21.9251 45.0099 21.9251ZM45.0099 60.0018C36.7578 60.0018 30.0117 53.274 30.0117 45C30.0117 36.726 36.738 29.9983 45.0099 29.9983C53.2821 29.9983 60.0084 36.726 60.0084 45C60.0084 53.274 53.262 60.0018 45.0099 60.0018ZM74.4045 20.9812C74.4045 23.9736 71.9949 26.3634 69.0234 26.3634C66.0318 26.3634 63.6426 23.9535 63.6426 20.9812C63.6426 18.009 66.0519 15.5991 69.0234 15.5991C71.9949 15.5991 74.4045 18.009 74.4045 20.9812ZM89.6838 26.4437C89.3424 19.2341 87.696 12.8478 82.4154 7.58619C77.1549 2.32456 70.7703 0.677787 63.5622 0.316299C56.1333 -0.105433 33.8667 -0.105433 26.4378 0.316299C19.2499 0.657705 12.865 2.30447 7.58451 7.56612C2.30396 12.8277 0.677634 19.214 0.31623 26.4236C-0.10541 33.8541 -0.10541 56.1258 0.31623 63.5562C0.657558 70.7658 2.30396 77.1522 7.58451 82.4139C12.865 87.6753 19.2298 89.3223 26.4378 89.6838C33.8667 90.1053 56.1333 90.1053 63.5622 89.6838C70.7703 89.3424 77.1549 87.6954 82.4154 82.4139C87.6759 77.1522 89.3223 70.7658 89.6838 63.5562C90.1053 56.1258 90.1053 33.8742 89.6838 26.4437ZM80.0865 71.529C78.5205 75.4653 75.4887 78.4977 71.5332 80.0841C65.6103 82.434 51.5556 81.8916 45.0099 81.8916C38.4645 81.8916 24.3898 82.4139 18.4869 80.0841C14.5516 78.5178 11.5198 75.4854 9.93363 71.529C7.58451 65.6046 8.12661 51.5469 8.12661 45C8.12661 38.4531 7.60458 24.3752 9.93363 18.4709C11.4997 14.5348 14.5315 11.5023 18.4869 9.91575C24.4099 7.56609 38.4645 8.10834 45.0099 8.10834C51.5556 8.10834 65.6301 7.58619 71.5332 9.91575C75.4686 11.4822 78.5004 14.5147 80.0865 18.4709C82.4355 24.3953 81.8934 38.4531 81.8934 45C81.8934 51.5469 82.4355 65.6247 80.0865 71.529Z" fill="url(#paint0_linear_3_101)"/>
</g>
<defs>
<linearGradient id="paint0_linear_3_101" x1="45" y1="0" x2="45" y2="89.9999" gradientUnits="userSpaceOnUse">
<stop stop-color="#5700C6"/>
<stop offset="0.369792" stop-color="#FA00FF"/>
<stop offset="0.588542" stop-color="#FF0000"/>
<stop offset="0.838542" stop-color="#FF7420" stop-opacity="0.99"/>
<stop offset="1" stop-color="#FFF500" stop-opacity="0.71"/>
</linearGradient>
<clipPath id="clip0_3_101">
<rect width="90" height="90" fill="white"/>
</clipPath>
</defs>
</svg>
