<svg width="90" height="90" viewBox="0 0 90 90" fill="none" xmlns="http://www.w3.org/2000/svg">
<path d="M80.7489 22.4296C80.8062 23.4139 80.8062 24.3985 80.8062 25.3828C80.8062 55.4061 62.2464 90 28.325 90C17.8744 90 8.1663 86.2734 0 79.8048C1.48483 80.0157 2.91236 80.0859 4.45431 80.0859C13.0773 80.0859 21.0153 76.5 27.3541 70.383C19.245 70.1718 12.4492 63.633 10.1078 54.6327C11.25 54.8436 12.3921 54.9843 13.5915 54.9843C15.2475 54.9843 16.9037 54.7029 18.4455 54.2109C9.99372 52.1013 3.65469 42.9609 3.65469 31.9218V31.6407C6.11019 33.3282 8.96577 34.383 11.9922 34.5234C7.0239 30.4452 3.76893 23.4843 3.76893 15.6092C3.76893 11.3906 4.68249 7.52337 6.28158 4.14834C15.3616 17.9296 29.0102 26.9294 44.3145 27.914C44.0292 26.2265 43.8579 24.4688 43.8579 22.711C43.8579 10.1952 52.0812 0 62.3034 0C67.6143 0 72.411 2.74218 75.7806 7.17186C79.9491 6.18753 83.9466 4.28901 87.4875 1.68751C86.1165 6.96108 83.2044 11.3908 79.3782 14.2031C83.0901 13.7111 86.688 12.4452 90 10.6876C87.4878 15.1874 84.3468 19.1951 80.7489 22.4296Z" fill="#00B2FF"/>
</svg>
