<svg width="90" height="62" viewBox="0 0 90 62" fill="none" xmlns="http://www.w3.org/2000/svg">
<g clip-path="url(#clip0_3_99)">
<path d="M88.1193 9.56654C87.0843 5.80094 84.0346 2.83527 80.1624 1.82882C73.1438 0 45 0 45 0C45 0 16.8564 0 9.83759 1.82882C5.96541 2.83544 2.91571 5.80094 1.88064 9.56654C0 16.3919 0 30.6325 0 30.6325C0 30.6325 0 44.8728 1.88064 51.6984C2.91571 55.464 5.96541 58.3061 9.83759 59.3124C16.8564 61.1413 45 61.1413 45 61.1413C45 61.1413 73.1436 61.1413 80.1624 59.3124C84.0346 58.3061 87.0843 55.464 88.1193 51.6984C90 44.8728 90 30.6325 90 30.6325C90 30.6325 90 16.3919 88.1193 9.56654ZM35.7953 43.5617V17.7031L59.3181 30.6328L35.7953 43.5617Z" fill="#FF0000"/>
</g>
<defs>
<clipPath id="clip0_3_99">
<rect width="90" height="61.1413" fill="white"/>
</clipPath>
</defs>
</svg>
